<svg width="1003" height="352" viewBox="0 0 1003 352" fill="none" xmlns="http://www.w3.org/2000/svg">
<path d="M72 267.088C22 237.088 3.16667 198.255 0 182.588C2.4 208.988 13.9762 236.088 21.5 246.088C34.6667 263.588 72.3 299.088 117.5 301.088C174 303.588 203.5 281.588 235 264.088C260.2 250.088 313.833 258.255 337.5 264.088C419.667 284.255 592.7 327.388 627.5 338.588C671 352.588 755.5 352.088 791.5 351.588C827.5 351.088 957 319.088 1002.5 283.588C899 334.088 823 332.588 786.5 334.088C757.3 335.288 650.333 317.255 600.5 308.088L408.5 252.088C383.667 244.755 327 230.088 299 230.088C268.5 230.088 242.667 243.255 230 255.088C198.167 271.588 122 297.088 72 267.088Z" fill="#F9C300"/>
<path fill-rule="evenodd" clip-rule="evenodd" d="M273.602 154.717C268.29 216.119 210.504 264.474 140 264.474C65.9938 264.474 6 211.195 6 145.474C6 129.368 9.60272 114.01 16.1315 100C19.3253 160.904 80.277 209.474 155 209.474C205.19 209.474 249.167 187.561 273.602 154.717Z" fill="#0093DD"/>
<path fill-rule="evenodd" clip-rule="evenodd" d="M240.444 65.8767C249.255 82.4571 251.585 100.714 245.468 117.522C231.911 154.768 182.005 170.799 134 153.326C85.9942 135.854 58.0677 91.4956 71.6241 54.249C80.2476 30.5558 103.58 15.4477 131.775 12.0873C131.888 11.7654 132.002 11.4404 132.115 11.1126C86.0061 9.28126 46.2015 29.9016 35.0177 65.3109C20.675 110.722 58.8361 163.26 120.253 182.658C181.67 202.056 243.085 180.969 257.428 135.558C264.884 111.951 258.152 86.4193 241.34 64.6177C241.041 65.0392 240.742 65.4591 240.444 65.8767Z" fill="#E67815"/>
<path fill-rule="evenodd" clip-rule="evenodd" d="M230.221 100.37C225.301 127.232 187.58 142.829 145.968 135.207C104.357 127.586 74.6122 99.6315 79.5322 72.7699C84.4521 45.9084 122.173 30.3113 163.785 37.9329C170.438 39.1514 176.788 40.8897 182.741 43.0603C182.841 43.3133 182.943 43.5707 183.046 43.8303C177.846 42.5776 172.31 41.8849 166.528 41.8849C131.458 41.8849 103.028 58.4503 103.028 78.8848C103.028 99.3194 131.458 115.885 166.528 115.885C201.598 115.885 224.528 105.319 224.528 84.8848C224.528 79.7053 222.922 74.3889 219.986 69.3377L220.556 68.4953C228.489 78.34 232.222 89.4454 230.221 100.37Z" fill="#85C225"/>
<path d="M340.857 0L476.111 144.582L478.206 170L342.952 25.6516L340.857 0ZM341.322 150.178V166.735H322V164.403C322 164.403 322.698 164.403 324.095 164.403C325.492 164.403 326.268 164.403 326.423 164.403C330.303 164.403 333.64 163.004 336.433 160.206C339.227 157.407 340.624 154.065 340.624 150.178H341.322ZM351.332 150.178C351.332 154.065 352.729 157.407 355.523 160.206C358.316 163.004 361.653 164.403 365.533 164.403C365.688 164.403 366.464 164.403 367.861 164.403C369.258 164.403 369.956 164.403 369.956 164.403V166.735H350.634V150.178H351.332ZM340.857 0L351.1 13.059L351.332 166.735H340.624V29.1495C340.624 21.2208 340.236 14.3804 339.46 8.62826C338.839 2.87609 338.529 0 338.529 0H340.857ZM478.206 3.49794V140.151C478.206 145.126 478.362 149.945 478.672 154.609C478.982 159.118 479.293 162.849 479.603 165.802C480.069 168.601 480.302 170 480.302 170H478.206L467.731 157.641V3.49794H478.206ZM496.83 3.49794V5.8299C496.83 5.8299 496.132 5.8299 494.735 5.8299C493.338 5.8299 492.64 5.8299 492.64 5.8299C488.76 5.8299 485.423 7.22908 482.63 10.0274C479.836 12.6703 478.362 16.0128 478.206 20.0549H477.508V3.49794H496.83ZM448.874 3.49794H468.196V20.0549H467.731C467.575 16.0128 466.101 12.6703 463.307 10.0274C460.669 7.22908 457.332 5.8299 453.297 5.8299C453.297 5.8299 452.599 5.8299 451.202 5.8299C449.805 5.8299 449.029 5.8299 448.874 5.8299V3.49794Z" fill="#4A3C85"/>
<path d="M542.184 3.73113L587.812 88.8477L577.802 97.0096L522.163 3.73113H542.184ZM591.071 91.6461V166.735H575.939V91.6461H591.071ZM632.509 3.73113H646.709L589.441 96.5432L581.061 93.9781L632.509 3.73113ZM622.964 20.2881C624.361 18.1116 624.749 15.9351 624.128 13.7586C623.507 11.4266 622.343 9.56105 620.636 8.16187C618.929 6.60722 616.989 5.8299 614.816 5.8299C614.816 5.8299 614.351 5.8299 613.419 5.8299C612.488 5.8299 612.023 5.8299 612.023 5.8299V3.49794H663.703V5.8299H660.444C655.633 5.8299 651.132 7.22908 646.942 10.0274C642.752 12.8258 639.415 16.0128 636.932 19.5885L622.964 20.2881ZM551.03 20.2881L531.475 19.5885C529.302 16.0128 526.121 12.8258 521.93 10.0274C517.74 7.22908 513.162 5.8299 508.195 5.8299H504.936V3.49794H562.204V5.8299C562.204 5.8299 561.661 5.8299 560.575 5.8299C559.643 5.8299 559.178 5.8299 559.178 5.8299C555.763 5.8299 553.125 7.46227 551.263 10.727C549.556 13.8363 549.478 17.0233 551.03 20.2881ZM576.405 149.712V166.735H558.014V164.403C558.014 164.403 558.479 164.403 559.411 164.403C560.342 164.403 560.885 164.403 561.04 164.403C565.075 164.403 568.49 163.004 571.283 160.206C574.232 157.252 575.784 153.754 575.939 149.712H576.405ZM590.373 149.712H591.071C591.071 153.754 592.545 157.252 595.494 160.206C598.443 163.004 601.935 164.403 605.97 164.403C605.97 164.403 606.436 164.403 607.367 164.403C608.298 164.403 608.763 164.403 608.763 164.403V166.735H590.373V149.712Z" fill="#4A3C85"/>
<path d="M696.791 3.49794H721.468C732.332 3.49794 741.488 5.13031 748.938 8.39506C756.543 11.6598 762.285 16.246 766.165 22.1536C770.045 27.9058 771.985 34.6685 771.985 42.4417C771.985 48.9712 770.743 54.7234 768.26 59.6982C765.777 64.5176 762.595 68.4819 758.715 71.5912C754.835 74.545 750.723 76.6438 746.377 77.8875C754.603 79.1312 761.664 81.8519 767.562 86.0494C773.614 90.2469 778.193 95.5327 781.297 101.907C784.556 108.125 786.185 115.121 786.185 122.894C786.185 131.6 784.09 139.296 779.9 145.981C775.71 152.51 769.502 157.641 761.276 161.372C753.206 164.947 743.428 166.735 731.944 166.735H706.103C706.103 166.735 706.103 166.036 706.103 164.636C706.259 163.237 706.336 161.838 706.336 160.439C706.336 159.04 706.336 158.34 706.336 158.34H731.013C739.083 158.34 745.912 156.941 751.499 154.143C757.086 151.189 761.354 146.914 764.302 141.317C767.251 135.72 768.726 129.035 768.726 121.262C768.726 112.556 767.018 105.482 763.604 100.041C760.345 94.5999 756.077 90.4801 750.8 87.6818C745.524 84.8834 739.781 83.0178 733.573 82.085C727.521 80.9968 721.701 80.4527 716.114 80.4527H708.199C711.768 80.4527 723.641 77.9653 727.986 77.1879C732.332 76.4106 736.522 74.856 740.557 72.524C744.592 70.192 747.929 66.7718 750.567 62.2634C753.206 57.5995 754.525 51.5364 754.525 44.0741C754.525 37.0782 753.206 31.0928 750.567 26.118C748.084 21.1431 744.282 17.412 739.16 14.9246C734.194 12.2817 727.986 10.9602 720.537 10.9602H699.119C699.119 10.8048 698.887 10.1829 698.421 9.09464C698.111 7.85094 697.723 6.60723 697.257 5.36351C696.947 4.1198 696.791 3.49794 696.791 3.49794ZM708.199 3.49794V166.735H693.067V3.49794H708.199ZM693.765 149.712V166.735H675.141L675.374 164.403C675.685 164.403 676.15 164.403 676.771 164.403C677.547 164.403 678.013 164.403 678.168 164.403C682.203 164.403 685.695 163.004 688.644 160.206C691.592 157.252 693.067 153.754 693.067 149.712H693.765ZM693.765 20.5213H693.067C693.067 16.4792 691.592 13.059 688.644 10.2606C685.695 7.30681 682.203 5.8299 678.168 5.8299C678.013 5.8299 677.547 5.8299 676.771 5.8299C676.15 5.8299 675.685 5.8299 675.374 5.8299L675.141 3.49794H693.765V20.5213Z" fill="#4A3C85"/>
<path d="M964 98.642L961.206 135.254C957.171 141.939 952.05 147.924 945.842 153.21C939.789 158.34 932.573 162.46 924.192 165.569C915.966 168.523 906.499 170 895.791 170C879.65 169.845 865.294 166.269 852.723 159.273C840.152 152.277 830.297 142.483 823.158 129.89C816.174 117.142 812.682 102.14 812.682 84.8834C812.682 67.9378 816.174 53.1687 823.158 40.5761C830.142 27.8281 839.919 17.9561 852.49 10.9602C865.217 3.80887 880.116 0.233193 897.187 0.233193C908.672 0.233193 918.993 1.78784 928.149 4.89713C937.461 7.85094 945.532 11.5821 952.36 16.0905L957.016 48.9712H954.921C951.507 35.2903 944.523 24.952 933.969 17.9561C923.416 10.8048 911.155 7.22908 897.187 7.22908C883.53 7.22908 871.657 10.4938 861.57 17.0233C851.637 23.3974 843.877 32.4143 838.29 44.0741C832.858 55.5784 830.142 69.1038 830.142 84.6502C830.142 100.197 832.858 113.8 838.29 125.46C843.877 137.119 851.559 146.214 861.337 152.743C871.269 159.273 882.754 162.693 895.791 163.004C906.81 163.004 916.975 160.983 926.287 156.941C935.754 152.743 943.669 145.981 950.032 136.653C956.395 127.17 960.431 114.499 962.138 98.642H964Z" fill="#4A3C85"/>
</svg>
